<svg width="1326" height="557" viewBox="0 0 1326 557" fill="none" xmlns="http://www.w3.org/2000/svg">
<rect width="1326" height="557" fill="black"/>
<path d="M156.103 307.313V212.477L250.939 307.313L346.733 212.477V307.313L250.939 402.149H156.103L203.521 354.731L156.103 307.313Z" fill="white"/>
<path d="M454.023 212.477L263.393 402.149H358.229L386.704 374.369V402.149H454.023V212.477Z" fill="white"/>
<path d="M462.645 269.106V402.149H529.384V339.971L570.313 381.075V402.149H636.991V221.5L571 242L570.63 287.062L529.701 246.005L462.645 269.106Z" fill="white"/>
<path d="M1092.5 402H1024.68H971.033L910 340.5L1030 212.5L1087 234.5L1091.74 379H1104.5L1109 402H1092.5Z" fill="white"/>
<path d="M1060.52 322.981C1060.52 322.981 1022.45 322.981 1022.45 277C1022.45 322.981 982 322.981 982 322.981C982 322.981 1022.45 322.981 1022.45 365.131C1022.45 322.981 1060.52 322.981 1060.52 322.981Z" fill="black"/>
<path d="M646.57 399.5H746.196M678.678 402V287.674M717.954 402V197.628M788 301L625.512 213.784M788 259.5L614 164" stroke="white" stroke-width="5.74766"/>
<path d="M898.213 212H816.464L876.413 275.614L754 402H831.137L858.386 379.251L876.413 402H959L898.213 340.492L959 275.614L898.213 212Z" fill="white"/>
<path d="M777.896 212V340.492L837.845 275.614L777.896 212Z" fill="white"/>
</svg>
