<svg width="953" height="241" viewBox="0 0 953 241" fill="none" xmlns="http://www.w3.org/2000/svg">
<path d="M0 145.833V50.9961L94.8364 145.833L190.631 50.9961V145.833L94.8364 240.669H0L47.4182 193.251L0 145.833Z" fill="black"/>
<path d="M297.921 50.9961L107.29 240.669H202.126L230.601 212.889V240.669H297.921V50.9961Z" fill="black"/>
<path d="M306.542 107.626V240.669H373.281V178.491L414.21 219.594V240.669H480.888V60.0195L414.897 80.5195L414.528 125.582L373.599 84.5241L306.542 107.626Z" fill="black"/>
<path d="M936.397 240.52H868.575H814.93L753.897 179.02L873.897 51.0195L930.897 73.0195L935.642 217.52H948.397L952.897 240.52H936.397Z" fill="black"/>
<path d="M904.414 161.501C904.414 161.501 866.345 161.501 866.345 115.52C866.345 161.501 825.897 161.501 825.897 161.501C825.897 161.501 866.345 161.501 866.345 203.65C866.345 161.501 904.414 161.501 904.414 161.501Z" fill="black"/>
<path d="M490.468 238.02H590.094M522.575 240.52V126.194M561.851 240.52V36.1472M631.897 139.52L469.409 52.3039M631.897 98.0195L457.897 2.51953" stroke="black" stroke-width="5.74766"/>
<path d="M742.11 50.5195H660.362L720.311 114.134L597.897 240.52H675.034L702.284 217.77L720.311 240.52H802.897L742.11 179.012L802.897 114.134L742.11 50.5195Z" fill="black"/>
<path d="M621.793 50.5195V179.012L681.742 114.134L621.793 50.5195Z" fill="black"/>
</svg>
